<?xml version="1.0" encoding="UTF-8"?>
<svg id="Capa_2" data-name="Capa 2" xmlns="http://www.w3.org/2000/svg" viewBox="0 0 984.39 468.96">
  <defs>
    <style>
      .cls-1 {
        fill: #d8a62a;
      }
    </style>
  </defs>
  <g id="Capa_1-2" data-name="Capa 1">
    <g>
      <g>
        <path class="cls-1" d="M519.65,359.56h203.42v109.4h-258.12c-30.22,0-54.7-24.5-54.7-54.7V101.23L126.07,461.87l-4.72,5.98H0l20.02-25.42L330.51,48.07l32.81-41.53,4.72-5.96h42.21v-.58h109.4v359.56Z"/>
        <rect class="cls-1" x="752.46" y="359.56" width="55.98" height="109.4"/>
        <rect class="cls-1" x="837.84" y="359.56" width="56" height="109.4"/>
        <rect class="cls-1" x="923.23" y="359.56" width="61.17" height="109.4"/>
      </g>
      <g>
        <path class="cls-1" d="M539.33,190.55h19.36v54.52h38.94v17.3h-58.3v-71.82Z"/>
        <path class="cls-1" d="M613.09,190.55h69.98v17.42h-50.62v9.73h37.64v17.42h-37.64v9.95h50.62v17.3h-69.98v-71.82Z"/>
        <path class="cls-1" d="M722.33,207.97h-25.96v-17.42h71.39v17.42h-26.07v54.4h-19.36v-54.4Z"/>
        <path class="cls-1" d="M783.11,190.55h19.36v27.15h32.56v-27.15h19.47v71.82h-19.47v-27.25h-32.56v27.25h-19.36v-71.82Z"/>
        <path class="cls-1" d="M874.5,190.55h19.36v71.82h-19.36v-71.82Z"/>
        <path class="cls-1" d="M947.4,189.25c17.74,0,29.42,10.38,34.5,22.71.22.65.43,1.3.76,1.95l.65,1.62-21.31.33-.43-.76c-2.81-4.54-8-7.89-14.17-7.89-11.57,0-16.87,10.38-16.87,19.25s5.3,19.15,16.87,19.15c7.25,0,12.44-4.33,15.03-9.84h-18.17v-17.31h39.26l.22,1.08c.43,2.27.65,4.65.65,6.92,0,17.09-11.57,37.21-36.99,37.21s-36.88-20.12-36.88-37.21,11.68-37.21,36.88-37.21Z"/>
      </g>
      <g>
        <path class="cls-1" d="M574.65,297.88l18.71-26.39h16.77v71.82h-19.47v-37.75l-7.9,11.14h-16.66l-8-11.14v37.75h-19.36v-71.82h16.66l19.25,26.39Z"/>
        <path class="cls-1" d="M630.13,271.49h69.98v17.41h-50.62v9.73h37.64v17.42h-37.64v9.95h50.62v17.3h-69.98v-71.82Z"/>
        <path class="cls-1" d="M718.17,271.49h35.69c24.77,0,36.88,18.82,36.88,35.91s-12.33,35.91-36.88,35.91h-35.69v-71.82ZM753.86,326c11.47,0,16.87-9.73,16.87-18.61s-5.41-18.5-16.87-18.5h-16.33v37.1h16.33Z"/>
        <path class="cls-1" d="M807.51,271.49h19.36v71.82h-19.36v-71.82Z"/>
        <path class="cls-1" d="M840.82,343.31l28.88-71.82h24.01l28.77,71.82h-20.77l-6.71-16.98h-27.04l-6.6,16.98h-20.55ZM874.67,309.02h13.74l-7.03-16.66-6.7,16.66Z"/>
      </g>
    </g>
  </g>
</svg>